<svg id="Layer_1" data-name="Layer 1" xmlns="http://www.w3.org/2000/svg" xmlns:xlink="http://www.w3.org/1999/xlink" viewBox="0 0 600 600"><defs><linearGradient id="linear-gradient" x1="596.04" y1="-236.62" x2="33.97" y2="782.22" gradientUnits="userSpaceOnUse"><stop offset="0.01" stop-color="#e1e4ee"/><stop offset="0.44" stop-color="#dfe2ed"/><stop offset="0.6" stop-color="#d7ddeb"/><stop offset="0.71" stop-color="#ced3e7"/><stop offset="0.81" stop-color="#bdc6e2"/><stop offset="0.88" stop-color="#a6b4db"/><stop offset="0.91" stop-color="#9cacd8"/></linearGradient><linearGradient id="linear-gradient-2" x1="142.93" y1="757.58" x2="485.13" y2="96.42" gradientUnits="userSpaceOnUse"><stop offset="0.12" stop-color="#ea04a1"/><stop offset="0.7" stop-color="#a814a8"/></linearGradient><linearGradient id="linear-gradient-3" x1="286.72" y1="405.85" x2="359.49" y2="-67.95" xlink:href="#linear-gradient-2"/></defs><circle cx="896.19" cy="-497.33" r="185.05" fill="#f2f6f9"/><path d="M440.23,490.71a232.52,232.52,0,0,1-306.16-21.78c28.79-18.81,82.19-53.7,95.35-61.92,18.24-11.4,14.84-38.78,14.84-38.78V312.4l102.56,18.25s14.84,52.42,10.29,81,3.4,28.4,3.4,28.4Z" fill="none"/><circle cx="300" cy="300" r="238.78" fill="url(#linear-gradient)"/><path d="M444.36,490.12a238.8,238.8,0,0,1-314.42-22.36c29.57-19.32,84.41-55.16,97.93-63.59,18.73-11.7,15.24-39.83,15.24-39.83V307l105.32,18.74s15.24,53.83,10.56,83.18,3.5,29.17,3.5,29.17Z" fill="url(#linear-gradient-2)"/><path d="M415.16,180.93c8.19-34.28-6.76-57.84-6.76-57.84s-26,11.85-48.84,14c0,0,10.53-1.32,13.17-9.66,0,0-15.36,3.51-43,4.39s-54.28-.29-86.62,18.29C204,172.6,216,241,219.68,270.72l.1,0-.1,0c-12.87,7,5.86,35.12,15.22,45.65s17.56,9.37,17.56,9.37-8.2,31.6,29.26,55,78.43,37.46,93.64,21.07,28.09-67.89,30.44-119.39c0,0,5.51-7.31,0-34-2.72-13.13-2.76-30.34-9.81-44.84C405.19,199.86,412.27,193,415.16,180.93Z" fill="url(#linear-gradient-3)"/><path d="M285,317.57q0-13.85,3.14-21.86a34.11,34.11,0,0,1,10.14-13.89A67.09,67.09,0,0,0,309,271.05a17.51,17.51,0,0,0,3.65-10.76q0-14.33-12.33-14.32a11.42,11.42,0,0,0-9.19,4.17q-3.51,4.17-3.7,11.29H255.33q.19-19,11.95-29.54t33-10.58q21.15,0,32.77,9.77t11.62,27.79a32.31,32.31,0,0,1-3.13,14.32,48.56,48.56,0,0,1-10.05,13.18l-10.91,10.15a25.6,25.6,0,0,0-6.45,9.15,36.15,36.15,0,0,0-2,11.9Zm-3.88,28.83a14.73,14.73,0,0,1,5.07-11.52,20.06,20.06,0,0,1,25.32,0,15.61,15.61,0,0,1,0,23.05,20.06,20.06,0,0,1-25.32,0A14.73,14.73,0,0,1,281.13,346.4Z" fill="#fff"/></svg>