<svg id="Layer_1" data-name="Layer 1" xmlns="http://www.w3.org/2000/svg" xmlns:xlink="http://www.w3.org/1999/xlink" viewBox="0 0 145.87 145.87"><defs><style>.cls-1{fill:url(#linear-gradient);}.cls-2{fill:#fff;}.cls-3{fill:url(#linear-gradient-2);}.cls-4{fill:#9ea9d4;}</style><linearGradient id="linear-gradient" x1="2.1" y1="72.94" x2="143.77" y2="72.94" gradientUnits="userSpaceOnUse"><stop offset="0" stop-color="#c70c9c"/><stop offset="1" stop-color="#8e1ba2"/></linearGradient><linearGradient id="linear-gradient-2" x1="41.33" y1="72.94" x2="104.54" y2="72.94" xlink:href="#linear-gradient"/></defs><circle class="cls-1" cx="72.94" cy="72.94" r="70.84"/><circle class="cls-2" cx="72.94" cy="72.94" r="54.19"/><circle class="cls-3" cx="72.94" cy="72.94" r="31.61"/><circle class="cls-2" cx="72.94" cy="72.94" r="26.28"/><path class="cls-4" d="M73.19,23.48a1.61,1.61,0,0,0,1.34-1.84l-1.59-9.88-1.6,9.88A1.62,1.62,0,0,0,73.19,23.48Z"/><path class="cls-4" d="M124.23,71.34a1.61,1.61,0,1,0,0,3.19l9.88-1.59Z"/><path class="cls-4" d="M72.68,122.39a1.61,1.61,0,0,0-1.34,1.84l1.6,9.88,1.59-9.88A1.62,1.62,0,0,0,72.68,122.39Z"/><path class="cls-4" d="M21.64,71.34l-9.88,1.6,9.88,1.59a1.61,1.61,0,1,0,0-3.19Z"/><path class="cls-4" d="M37.79,35.54l-8.11-5.86,5.86,8.11a1.61,1.61,0,1,0,2.25-2.25Z"/><path class="cls-4" d="M108.08,38.15a1.61,1.61,0,0,0,2.25-.36l5.86-8.11-8.11,5.86A1.62,1.62,0,0,0,108.08,38.15Z"/><path class="cls-4" d="M107.72,108.08a1.61,1.61,0,0,0,.36,2.25l8.11,5.86-5.86-8.11A1.62,1.62,0,0,0,107.72,108.08Z"/><path class="cls-4" d="M37.79,107.72a1.61,1.61,0,0,0-2.25.36l-5.86,8.11,8.11-5.86A1.62,1.62,0,0,0,37.79,107.72Z"/><path class="cls-4" d="M72.63,36.51c3.5,0,4.38-1,4.38-5.11s-.88-5.12-4.38-5.12-4.38,1-4.38,5.12S69.13,36.51,72.63,36.51Zm0-8.19c1.43,0,1.58.3,1.58,3.08s-.15,3.08-1.58,3.08-1.58-.31-1.58-3.08S71.21,28.32,72.63,28.32Z"/><path class="cls-4" d="M116.11,65.48V67.9h-6.6v2.42h9.92V68c-1.29,0-1.53-.28-1.53-1.39V65.48Z"/><path class="cls-4" d="M114.47,71.34c-4.1,0-5.11.88-5.11,4.38s1,4.37,5.11,4.37,5.12-.88,5.12-4.37S118.57,71.34,114.47,71.34Zm0,6c-2.77,0-3.08-.15-3.08-1.57s.31-1.58,3.08-1.58,3.08.15,3.08,1.58S117.25,77.29,114.47,77.29Z"/><path class="cls-4" d="M77.48,117.43c-1.3,0-1.44-.11-1.44-.87,0-.55.2-.86,1-1.56l4.39-3.71v-1.78H73.24v2.29h3.87l-2.77,2.37c-1,.89-.86,1.45-.9,2.87-.08,2,.73,2.55,4,2.55s4.09-.69,4.09-3.44h-2.8C78.75,117.29,78.62,117.43,77.48,117.43Z"/><path class="cls-4" d="M72.35,114.47c0-4.09-.88-5.11-4.38-5.11s-4.38,1-4.38,5.11.88,5.12,4.38,5.12S72.35,118.57,72.35,114.47ZM68,117.55c-1.43,0-1.58-.3-1.58-3.08s.15-3.08,1.58-3.08,1.58.31,1.58,3.08S69.39,117.55,68,117.55Z"/><path class="cls-4" d="M29.29,77.26c.84,0,1,.26,1,1.7v1.62h2V79c0-1.66.17-2,1.07-2s1.1.3,1.1,2c0,1.49-.1,1.65-1,1.65v2.55c2.44,0,3-.86,3-4.28s-.54-4.43-2.72-4.43c-1.55,0-2.33.55-2.49,1.77-.18-1-.91-1.46-2.35-1.46-2.13,0-2.67.83-2.67,4.12s.58,4.1,2.87,4.1V80.64c-.74,0-.83-.27-.83-1.68S28.47,77.26,29.29,77.26Z"/><path class="cls-4" d="M31.4,73.51c4.1,0,5.11-.87,5.11-4.37s-1-4.38-5.11-4.38-5.12.88-5.12,4.38S27.3,73.51,31.4,73.51Zm0-6c2.77,0,3.08.15,3.08,1.58s-.31,1.57-3.08,1.57-3.08-.15-3.08-1.57S28.62,67.56,31.4,67.56Z"/></svg>