<?xml version="1.0" encoding="utf-8"?>
<!-- Generator: Adobe Illustrator 26.0.3, SVG Export Plug-In . SVG Version: 6.00 Build 0)  -->
<svg version="1.1" id="Layer_1" xmlns="http://www.w3.org/2000/svg" xmlns:xlink="http://www.w3.org/1999/xlink" x="0px" y="0px"
	 viewBox="0 0 490.7 432.7" style="enable-background:new 0 0 490.7 432.7;" xml:space="preserve">
<style type="text/css">
	.st0{clip-path:url(#SVGID_00000115490411032598628160000016439978835463930028_);}
	.st1{fill:#9AAAD6;}
	.st2{clip-path:url(#SVGID_00000040562850389203969900000005958922100374462084_);}
	.st3{fill:url(#SVGID_00000127729564162137895990000001863267226705510033_);}
	.st4{fill:url(#SVGID_00000161602749496034297700000013258656772183120537_);}
	.st5{fill:#F0F4F7;}
	.st6{clip-path:url(#SVGID_00000101819004878976975600000002631455257655056547_);fill:#FFFFFF;}
	
		.st7{clip-path:url(#SVGID_00000129193623790557509880000017925969164083468202_);fill:url(#SVGID_00000102531401226353645230000007812150427443841673_);}
	.st8{fill:url(#SVGID_00000078015163004188197690000011170512473025158826_);}
	.st9{fill:url(#SVGID_00000099623265776909465790000003023152744606132880_);}
	.st10{fill:url(#SVGID_00000110468153964456304840000011787721188455949502_);}
	.st11{fill:url(#SVGID_00000173142033531611494600000014717873138221502103_);}
	.st12{fill:url(#SVGID_00000116928250361730728540000002859289922441755547_);}
	.st13{fill:#FFFFFF;}
</style>
<g>
	<g>
		<g>
			<g>
				<defs>
					
						<rect id="SVGID_1_" x="13.7" y="341.7" transform="matrix(0.9116 -0.411 0.411 0.9116 -141.1626 158.9149)" width="570.5" height="132.1"/>
				</defs>
				<clipPath id="SVGID_00000015318039226442527520000013727253895072746923_">
					<use xlink:href="#SVGID_1_"  style="overflow:visible;"/>
				</clipPath>
				<g style="clip-path:url(#SVGID_00000015318039226442527520000013727253895072746923_);">
					<circle class="st1" cx="229.9" cy="247" r="184.1"/>
				</g>
			</g>
		</g>
	</g>
	<g>
		<g>
			<g>
				<defs>
					<rect id="SVGID_00000036963032988769329980000009328833328932278921_" x="-48.4" y="-17" width="570.5" height="338.7"/>
				</defs>
				<clipPath id="SVGID_00000025422287659779529820000005424703938585849278_">
					<use xlink:href="#SVGID_00000036963032988769329980000009328833328932278921_"  style="overflow:visible;"/>
				</clipPath>
				<g style="clip-path:url(#SVGID_00000025422287659779529820000005424703938585849278_);">
					<circle class="st1" cx="240" cy="215.1" r="184.1"/>
				</g>
			</g>
		</g>
	</g>
	<g>
		
			<linearGradient id="SVGID_00000180358573946499087790000002882536429760862121_" gradientUnits="userSpaceOnUse" x1="-164.5859" y1="179.7324" x2="792.9129" y2="126.1661" gradientTransform="matrix(1 0 0 -1 204 442)">
			<stop  offset="5.516841e-03" style="stop-color:#DFE2EC"/>
			<stop  offset="0.4438" style="stop-color:#DDE0EB"/>
			<stop  offset="0.6016" style="stop-color:#D5DBE9"/>
			<stop  offset="0.7141" style="stop-color:#CCD1E5"/>
			<stop  offset="0.8051" style="stop-color:#BBC4E0"/>
			<stop  offset="0.8821" style="stop-color:#A4B2D9"/>
			<stop  offset="0.91" style="stop-color:#9AAAD6"/>
		</linearGradient>
		<path style="fill:url(#SVGID_00000180358573946499087790000002882536429760862121_);" d="M107.8,373.9c-9.1,0-16.5-7.4-16.5-16.5
			V174.7h310.4v182.7c0,9.1-7.4,16.5-16.5,16.5H107.8z"/>
		<g>
			
				<linearGradient id="SVGID_00000135689763451189881110000003372562580298500998_" gradientUnits="userSpaceOnUse" x1="-2.4686" y1="411.678" x2="73.0065" y2="169.5882" gradientTransform="matrix(1 0 0 -1 204 442)">
				<stop  offset="5.516841e-03" style="stop-color:#DFE2EC"/>
				<stop  offset="0.4438" style="stop-color:#DDE0EB"/>
				<stop  offset="0.6016" style="stop-color:#D5DBE9"/>
				<stop  offset="0.7141" style="stop-color:#CCD1E5"/>
				<stop  offset="0.8051" style="stop-color:#BBC4E0"/>
				<stop  offset="0.8821" style="stop-color:#A4B2D9"/>
				<stop  offset="0.91" style="stop-color:#9AAAD6"/>
			</linearGradient>
			<path style="fill:url(#SVGID_00000135689763451189881110000003372562580298500998_);" d="M91.3,174.7l106.2,99.6h46.7h2.3h46.7
				l108.5-99.7L258.8,50.8c-7.2-6.3-18-6.4-25.2-0.1L91.3,174.7z"/>
		</g>
		<path class="st5" d="M244.3,274.6h-46.7l-101,94.7c3,2.8,6.9,4.4,11.3,4.4h277.4c3.9,0,7.3-1.3,10.1-3.5l-102-95.7h-46.7H244.3z"
			/>
		<g>
			<g>
				<defs>
					<path id="SVGID_00000103257312406737138190000004907296440011822515_" d="M91.3,174.7l106.2,99.6h46.7h2.3h46.7l108.5-99.7V8.1
						c-7.2-6.3-285.3-5.6-292.5,0.7L91.3,174.7z"/>
				</defs>
				<clipPath id="SVGID_00000058547537662885526200000013551669238270954425_">
					<use xlink:href="#SVGID_00000103257312406737138190000004907296440011822515_"  style="overflow:visible;"/>
				</clipPath>
				<polygon style="clip-path:url(#SVGID_00000058547537662885526200000013551669238270954425_);fill:#FFFFFF;" points="331.5,86 
					132.5,86 132.5,305.8 363.2,305.8 363.2,123.2 				"/>
			</g>
			<g>
				<defs>
					<path id="SVGID_00000031928968829234202660000006582271920503118991_" d="M91.3,174.7l106.2,99.6h46.7h2.3h46.7l108.5-99.7V8.1
						c-7.2-6.3-285.3-5.6-292.5,0.7L91.3,174.7z"/>
				</defs>
				<clipPath id="SVGID_00000168823268137680559360000004317927035845899653_">
					<use xlink:href="#SVGID_00000031928968829234202660000006582271920503118991_"  style="overflow:visible;"/>
				</clipPath>
				
					<linearGradient id="SVGID_00000048500062412751158250000007282658159909809805_" gradientUnits="userSpaceOnUse" x1="50.1125" y1="404.3779" x2="236.9252" y2="253.7225" gradientTransform="matrix(1 0 0 -1 204 442)">
					<stop  offset="5.516841e-03" style="stop-color:#DFE2EC"/>
					<stop  offset="0.4438" style="stop-color:#DDE0EB"/>
					<stop  offset="0.6016" style="stop-color:#D5DBE9"/>
					<stop  offset="0.7141" style="stop-color:#CCD1E5"/>
					<stop  offset="0.8051" style="stop-color:#BBC4E0"/>
					<stop  offset="0.8821" style="stop-color:#A4B2D9"/>
					<stop  offset="0.91" style="stop-color:#9AAAD6"/>
				</linearGradient>
				
					<path style="clip-path:url(#SVGID_00000168823268137680559360000004317927035845899653_);fill:url(#SVGID_00000048500062412751158250000007282658159909809805_);" d="
					M331.5,86v20.9c0,8.2,6.7,14.9,14.9,14.9h16.8L331.5,86z"/>
			</g>
		</g>
		<g>
			<g>
				
					<linearGradient id="SVGID_00000030459595166069526520000000439175737506388911_" gradientUnits="userSpaceOnUse" x1="437.1983" y1="326.5801" x2="-678.3213" y2="326.5801" gradientTransform="matrix(1 0 0 -1 204 442)">
					<stop  offset="5.516841e-03" style="stop-color:#DFE2EC"/>
					<stop  offset="0.4438" style="stop-color:#DDE0EB"/>
					<stop  offset="0.6016" style="stop-color:#D5DBE9"/>
					<stop  offset="0.7141" style="stop-color:#CCD1E5"/>
					<stop  offset="0.8051" style="stop-color:#BBC4E0"/>
					<stop  offset="0.8821" style="stop-color:#A4B2D9"/>
					<stop  offset="0.91" style="stop-color:#9AAAD6"/>
				</linearGradient>
				<path style="fill:url(#SVGID_00000030459595166069526520000000439175737506388911_);" d="M252.5,118.1h-91.7
					c-1.5,0-2.7-1.2-2.7-2.7c0-1.5,1.2-2.7,2.7-2.7h91.7c1.5,0,2.7,1.2,2.7,2.7C255.1,116.9,253.8,118.1,252.5,118.1z"/>
			</g>
			<g>
				
					<linearGradient id="SVGID_00000132789703743388188260000012610064606328173987_" gradientUnits="userSpaceOnUse" x1="437.1983" y1="309.6893" x2="-678.3213" y2="309.6893" gradientTransform="matrix(1 0 0 -1 204 442)">
					<stop  offset="5.516841e-03" style="stop-color:#DFE2EC"/>
					<stop  offset="0.4438" style="stop-color:#DDE0EB"/>
					<stop  offset="0.6016" style="stop-color:#D5DBE9"/>
					<stop  offset="0.7141" style="stop-color:#CCD1E5"/>
					<stop  offset="0.8051" style="stop-color:#BBC4E0"/>
					<stop  offset="0.8821" style="stop-color:#A4B2D9"/>
					<stop  offset="0.91" style="stop-color:#9AAAD6"/>
				</linearGradient>
				<path style="fill:url(#SVGID_00000132789703743388188260000012610064606328173987_);" d="M206.6,135h-45.8
					c-1.5,0-2.7-1.2-2.7-2.7s1.2-2.7,2.7-2.7h45.8c1.5,0,2.7,1.2,2.7,2.7S208,135,206.6,135z"/>
			</g>
		</g>
	</g>
	
		<linearGradient id="SVGID_00000123401658972077418000000001634970363601667517_" gradientUnits="userSpaceOnUse" x1="65.0337" y1="169.578" x2="-423.966" y2="661.7947" gradientTransform="matrix(1 0 0 -1 204 442)">
		<stop  offset="5.516841e-03" style="stop-color:#DFE2EC"/>
		<stop  offset="0.4438" style="stop-color:#DDE0EB"/>
		<stop  offset="0.6016" style="stop-color:#D5DBE9"/>
		<stop  offset="0.7141" style="stop-color:#CCD1E5"/>
		<stop  offset="0.8051" style="stop-color:#BBC4E0"/>
		<stop  offset="0.8821" style="stop-color:#A4B2D9"/>
		<stop  offset="0.91" style="stop-color:#9AAAD6"/>
	</linearGradient>
	<path style="fill:url(#SVGID_00000123401658972077418000000001634970363601667517_);" d="M2.8,67.5h95.4c0,0,8.5-8.5,4.8-21.8
		c-3.7-13.3-21.3-19.9-26.7-4c0,0-7-8.7-23-6.6C37.5,37.1,37.5,50,37.5,50S12.5,43.1,2.8,67.5z"/>
	
		<linearGradient id="SVGID_00000065793470472090521320000005294350089638696894_" gradientUnits="userSpaceOnUse" x1="-140.5582" y1="261.5856" x2="-500.5506" y2="623.9464" gradientTransform="matrix(-1 0 0 -1 -156.615 442)">
		<stop  offset="5.516841e-03" style="stop-color:#DFE2EC"/>
		<stop  offset="0.4438" style="stop-color:#DDE0EB"/>
		<stop  offset="0.6016" style="stop-color:#D5DBE9"/>
		<stop  offset="0.7141" style="stop-color:#CCD1E5"/>
		<stop  offset="0.8051" style="stop-color:#BBC4E0"/>
		<stop  offset="0.8821" style="stop-color:#A4B2D9"/>
		<stop  offset="0.91" style="stop-color:#9AAAD6"/>
	</linearGradient>
	<path style="fill:url(#SVGID_00000065793470472090521320000005294350089638696894_);" d="M179.9,29.6h-70.2c0,0-6.3-6.3-3.6-16.1
		c2.8-9.8,15.7-14.6,19.7-3c0,0,5.2-6.4,16.9-4.8c11.8,1.6,11.8,11,11.8,11S172.8,11.5,179.9,29.6z"/>
	<g>
		<g>
			<path class="st1" d="M398.4,99.1l17.5-16.7h55.3c0,0,13.7,3,15.5-11.5c1.8-14.6,0-35.1,0-35.1s1.8-12.4-12.4-13.1
				c-14.3-0.6-59.8,0-59.8,0s-8.4,0-11.1,14.3c-2.6,14.3-8.2,60.3-8.2,60.3S395,102.4,398.4,99.1z"/>
		</g>
	</g>
	
		<linearGradient id="SVGID_00000163049252838787572180000001985004385919083166_" gradientUnits="userSpaceOnUse" x1="141.9437" y1="195.5029" x2="352.243" y2="195.5029">
		<stop  offset="0" style="stop-color:#E7049F"/>
		<stop  offset="1" style="stop-color:#A514A6"/>
	</linearGradient>
	<path style="fill:url(#SVGID_00000163049252838787572180000001985004385919083166_);" d="M325.9,221.9H168.3
		c-14.6,0-26.4-11.8-26.4-26.4v0c0-14.6,11.8-26.4,26.4-26.4h157.5c14.6,0,26.4,11.8,26.4,26.4v0
		C352.2,210.1,340.4,221.9,325.9,221.9z"/>
	<g>
		<path class="st13" d="M186.2,183.8l-8.2,9.8v0.2l12.3-2.5v7.8l-12.4-2.1v0.2l8.3,9.5l-6.8,3.9l-4.5-11.8h-0.2l-4.4,11.8l-6.6-3.9
			l8.2-9.6l-0.1-0.2l-12.1,2.2v-7.8l12,2.5v-0.2l-8.1-9.8l6.8-4l4.2,11.9h0.2l4.5-11.9L186.2,183.8z"/>
	</g>
	<g>
		<path class="st13" d="M235.2,183.8l-8.2,9.8v0.2l12.3-2.5v7.8l-12.4-2.1v0.2l8.3,9.5l-6.8,3.9l-4.5-11.8h-0.2l-4.4,11.8l-6.6-3.9
			l8.2-9.6l-0.1-0.2l-12.1,2.2v-7.8l12,2.5v-0.2l-8.1-9.8l6.8-4l4.2,11.9h0.2l4.5-11.9L235.2,183.8z"/>
	</g>
	<g>
		<path class="st13" d="M284.3,183.8l-8.2,9.8v0.2l12.3-2.5v7.8L276,197v0.2l8.3,9.5l-6.8,3.9l-4.5-11.8h-0.2l-4.4,11.8l-6.6-3.9
			l8.2-9.6l-0.1-0.2l-12.1,2.2v-7.8l12,2.5v-0.2l-8.1-9.8l6.8-4l4.2,11.9h0.2l4.5-11.9L284.3,183.8z"/>
	</g>
	<g>
		<path class="st13" d="M333.3,183.8l-8.2,9.8v0.2l12.3-2.5v7.8L325,197v0.2l8.3,9.5l-6.8,3.9l-4.5-11.8h-0.2l-4.4,11.8l-6.6-3.9
			l8.2-9.6l-0.1-0.2l-12.1,2.2v-7.8l12,2.5v-0.2l-8.1-9.8l6.8-4l4.2,11.9h0.2l4.5-11.9L333.3,183.8z"/>
	</g>
</g>
</svg>
