<?xml version="1.0" encoding="utf-8"?>
<!-- Generator: Adobe Illustrator 26.0.3, SVG Export Plug-In . SVG Version: 6.00 Build 0)  -->
<svg version="1.1" id="Layer_1" xmlns="http://www.w3.org/2000/svg" xmlns:xlink="http://www.w3.org/1999/xlink" x="0px" y="0px"
	 viewBox="0 0 689.7 355.9" style="enable-background:new 0 0 689.7 355.9;" xml:space="preserve">
<style type="text/css">
	.st0{fill:none;stroke:#A2A2A3;stroke-width:1.8553;stroke-miterlimit:10;}
	.st1{fill:#A2A2A3;}
	.st2{fill:none;stroke:#E2E2E2;stroke-miterlimit:10;}
	.st3{fill:#E2E2E2;}
	.st4{fill:#FAFAFA;}
	.st5{opacity:0.4;fill:#E2E2E2;enable-background:new    ;}
</style>
<g>
	<path class="st0" d="M454.9,116.6c-5.2-9.5-11.9-18.5-20.1-26.6C391.1,46.2,321.3,44.1,275,83.7c-0.5,0.4-1,0.9-1.5,1.3
		 M245.4,224.8c5.6,11.5,13.2,22.3,22.8,31.9c46,46,120.7,46,166.7,0c9.5-9.5,17.1-20.3,22.7-31.7"/>
	<path class="st0" d="M257.8,219.2c4.9,10.1,11.6,19.5,20,27.9c9.9,9.9,21.3,17.4,33.5,22.5"/>
	<path class="st1" d="M228.4,299.1l-2.6-2.6c-2.7-2.7-0.7-8.5,3.8-12.3l22.9-19.2c1.8-1.5,4.4-1.4,5.9,0.1l1.4,1.4
		c1.5,1.5,1.6,4.1,0.1,5.9l-19.2,22.9C236.8,299.9,231.1,301.9,228.4,299.1z"/>
	<polyline class="st0" points="270.1,258.6 258.1,270.6 254.3,266.7 266.2,254.8 	"/>
	
		<image style="overflow:visible;" width="766" height="618" xlink:href="1A82863A.png"  transform="matrix(0.24 0 0 0.24 100.56 91.18)">
	</image>
	<path class="st2" d="M243,225h-47h-72.1c-6.9,0-12.5-5.6-12.5-12.5v-83.4c0-6.9,5.6-12.5,12.5-12.5h64.9H243
		c6.9,0,12.5,5.6,12.5,12.5v16.6v49.6v17.2C255.5,219.4,249.9,225,243,225z"/>
	<rect x="120.6" y="126.4" class="st3" width="125.3" height="78.3"/>
	<g>
		<rect x="167.2" y="147.5" class="st4" width="32.5" height="32.5"/>
	</g>
	<path class="st3" d="M136.1,213.4c0,0.9-0.4,1.8-1,2.4c-0.1,0.1-0.2,0.2-0.3,0.3l-5.2,4.1l-5.2-4.1c-0.1-0.1-0.2-0.2-0.3-0.3
		c-1.3-1.3-1.3-3.5,0-4.9c1.2-1.2,3.2-1.4,4.6-0.3l1,0.8l1-0.8c1.5-1.2,3.7-0.9,4.8,0.6C135.8,211.9,136.1,212.7,136.1,213.4z"/>
	<path class="st3" d="M142.6,210c-2.2,0-4,1.8-4,4c0,0.6,0.1,1.1,0.3,1.6c0.9,2.5,3.7,4.6,3.7,4.6s2.7-2.1,3.7-4.6
		c0.2-0.5,0.3-1,0.3-1.6C146.6,211.8,144.8,210,142.6,210z M142.5,215.5c-1,0-1.9-0.8-1.9-1.9s0.9-1.9,1.9-1.9s1.9,0.9,1.9,1.9
		S143.5,215.5,142.5,215.5z"/>
	<rect x="160.4" y="210" class="st3" width="39.3" height="3.6"/>
	<rect x="160.4" y="215.5" class="st3" width="76.6" height="3.6"/>
	
		<image style="overflow:visible;" width="767" height="618" xlink:href="1A82863E.png"  transform="matrix(0.24 0 0 0.24 423.36 91.18)">
	</image>
	<path class="st2" d="M565.8,225H446.7c-6.9,0-12.5-5.6-12.5-12.5v-83.4c0-6.9,5.6-12.5,12.5-12.5h119.1c6.9,0,12.5,5.6,12.5,12.5
		v83.4C578.3,219.4,572.7,225,565.8,225z"/>
	<rect x="443.4" y="126.4" class="st3" width="125.3" height="78.3"/>
	<path class="st3" d="M458.9,213.4c0,0.9-0.4,1.8-1,2.4c-0.1,0.1-0.2,0.2-0.3,0.3l-5.2,4.1l-5.2-4.1c-0.1-0.1-0.2-0.2-0.3-0.3
		c-1.3-1.3-1.3-3.5,0-4.9c1.2-1.2,3.2-1.4,4.6-0.3l1,0.8l1-0.8c1.5-1.2,3.7-0.9,4.8,0.6C458.6,211.9,458.9,212.7,458.9,213.4z"/>
	<path class="st3" d="M465.3,210c-2.2,0-4,1.8-4,4c0,0.6,0.1,1.1,0.3,1.6c0.9,2.5,3.7,4.6,3.7,4.6s2.8-2.1,3.7-4.6
		c0.2-0.5,0.3-1,0.3-1.6C469.3,211.8,467.5,210,465.3,210z M465.3,215.5c-1,0-1.9-0.8-1.9-1.9s0.8-1.9,1.9-1.9s1.9,0.9,1.9,1.9
		S466.3,215.5,465.3,215.5z"/>
	<rect x="483.1" y="210" class="st3" width="39.3" height="3.6"/>
	<rect x="483.1" y="215.5" class="st3" width="76.6" height="3.6"/>
	<path class="st4" d="M514.3,190.8H509v-10.1l17.7-30.7h-6.2l5.4-9.4l-1.6-1l-6,10.4h-1.8l6-16l-1.8-0.7l-6.3,16.7h-25.1l17.8,30.8
		v10h-5.2c-2.5,0-4.5,2-4.5,4.5h21.3C518.7,192.8,516.7,190.8,514.3,190.8z"/>
	<g>
		
			<image style="overflow:visible;" width="767" height="618" xlink:href="1A828639.png"  transform="matrix(0.24 0 0 0.24 264.48 91.18)">
		</image>
		<circle class="st3" cx="304.3" cy="143.3" r="14.9"/>
		<path class="st5" d="M401.5,212.1H293.1v-13.5l20.2-20.2c1.3-1.3,3.5-1.3,4.8,0l0,0l15.7,15.7l38.2-38.2c1.3-1.3,3.5-1.3,4.8,0
			l0,0l24.7,24.7L401.5,212.1z"/>
		<path class="st3" d="M401.5,212.1H293.1v-13.5l20.2-20.2c1.3-1.3,3.5-1.3,4.8,0l0,0l15.7,15.7l38.2-38.2c1.3-1.3,3.5-1.3,4.8,0
			l0,0l24.7,24.7L401.5,212.1z"/>
		<path class="st2" d="M406.9,225H287.7c-6.9,0-12.5-5.6-12.5-12.5v-83.4c0-6.9,5.6-12.5,12.5-12.5h119.1c6.9,0,12.5,5.6,12.5,12.5
			v83.4C419.3,219.4,413.8,225,406.9,225z"/>
	</g>
</g>
</svg>
