<svg id="Layer_1" data-name="Layer 1" xmlns="http://www.w3.org/2000/svg" xmlns:xlink="http://www.w3.org/1999/xlink" viewBox="0 0 490.68 432.66"><defs><style>.cls-1,.cls-18{fill:none;}.cls-2{clip-path:url(#clip-path);}.cls-3{fill:#9cacd8;}.cls-4{clip-path:url(#clip-path-2);}.cls-5{fill:url(#linear-gradient);}.cls-6{fill:url(#linear-gradient-2);}.cls-7{fill:#f2f6f9;}.cls-8{clip-path:url(#clip-path-3);}.cls-9{fill:#fff;}.cls-10{fill:url(#linear-gradient-3);}.cls-11{fill:url(#linear-gradient-4);}.cls-12{fill:url(#linear-gradient-5);}.cls-13{fill:url(#linear-gradient-6);}.cls-14{fill:url(#linear-gradient-7);}.cls-15{fill:url(#linear-gradient-8);}.cls-16{fill:url(#linear-gradient-9);}.cls-17{fill:url(#linear-gradient-10);}.cls-18{stroke:#fff;stroke-linecap:round;stroke-linejoin:round;stroke-width:6.97px;}</style><clipPath id="clip-path" transform="translate(-66.13 -100.2)"><rect class="cls-1" x="77.2" y="442.35" width="577.58" height="133.7" transform="translate(-176.94 195.42) rotate(-24.27)"/></clipPath><clipPath id="clip-path-2" transform="translate(-66.13 -100.2)"><rect class="cls-1" x="14.28" y="79.16" width="577.6" height="342.9"/></clipPath><linearGradient id="linear-gradient" x1="-100.79" y1="-1094.25" x2="868.57" y2="-1148.48" gradientTransform="matrix(1, 0, 0, -1, 204, -732.32)" gradientUnits="userSpaceOnUse"><stop offset="0.01" stop-color="#e1e4ee"/><stop offset="0.44" stop-color="#dfe2ed"/><stop offset="0.6" stop-color="#d7ddeb"/><stop offset="0.71" stop-color="#ced3e7"/><stop offset="0.81" stop-color="#bdc6e2"/><stop offset="0.88" stop-color="#a6b4db"/><stop offset="0.91" stop-color="#9cacd8"/></linearGradient><linearGradient id="linear-gradient-2" x1="63.34" y1="-859.44" x2="139.74" y2="-1104.52" xlink:href="#linear-gradient"/><clipPath id="clip-path-3" transform="translate(-66.13 -100.2)"><path class="cls-1" d="M155.78,273.26l107.5,100.8h96.9L470,273.16V104.66c-7.3-6.4-288.8-5.7-296.1.7Z"/></clipPath><linearGradient id="linear-gradient-3" x1="116.57" y1="-866.83" x2="305.69" y2="-1019.35" xlink:href="#linear-gradient"/><linearGradient id="linear-gradient-4" x1="508.45" y1="-945.59" x2="-620.89" y2="-945.59" xlink:href="#linear-gradient"/><linearGradient id="linear-gradient-5" x1="508.45" y1="-962.69" x2="-620.89" y2="-962.69" xlink:href="#linear-gradient"/><linearGradient id="linear-gradient-6" x1="131.67" y1="-1104.53" x2="-363.38" y2="-606.22" xlink:href="#linear-gradient"/><linearGradient id="linear-gradient-7" x1="387.27" y1="-1011.39" x2="22.82" y2="-644.54" gradientTransform="translate(434.32 -732.32) rotate(180)" xlink:href="#linear-gradient"/><linearGradient id="linear-gradient-8" x1="55.78" y1="-1038.09" x2="161.99" y2="-1038.09" gradientTransform="matrix(1, 0, 0, -1, 137.87, -832.52)" gradientUnits="userSpaceOnUse"><stop offset="0" stop-color="#ea04a1"/><stop offset="1" stop-color="#a814a8"/></linearGradient><linearGradient id="linear-gradient-9" x1="180.59" y1="-978.25" x2="196.75" y2="-978.25" gradientTransform="translate(550.87 -732.32) rotate(180)" xlink:href="#linear-gradient-8"/><linearGradient id="linear-gradient-10" x1="168.11" y1="-991.27" x2="177" y2="-991.27" gradientTransform="translate(550.87 -732.32) rotate(180)" xlink:href="#linear-gradient-8"/></defs><g class="cls-2"><circle class="cls-3" cx="229.95" cy="246.26" r="186.4"/></g><g class="cls-4"><circle class="cls-3" cx="240.15" cy="213.96" r="186.4"/></g><path class="cls-5" d="M172.48,475a16.73,16.73,0,0,1-16.7-16.7v-185H470v185a16.73,16.73,0,0,1-16.7,16.7Z" transform="translate(-66.13 -100.2)"/><path class="cls-6" d="M155.78,273.26l107.5,100.8h96.9L470,273.16l-144.7-125.3a19.33,19.33,0,0,0-25.5-.1Z" transform="translate(-66.13 -100.2)"/><path class="cls-7" d="M310.58,374.46h-47.3L161,470.36a16.64,16.64,0,0,0,11.4,4.5h280.8a16.35,16.35,0,0,0,10.2-3.5l-103.3-96.9h-49.5Z" transform="translate(-66.13 -100.2)"/><g class="cls-8"><polygon class="cls-9" points="332.75 83.26 131.35 83.26 131.35 305.76 364.85 305.76 364.85 120.96 332.75 83.26"/></g><g class="cls-8"><path class="cls-10" d="M398.88,183.46v21.2a15.15,15.15,0,0,0,15.1,15.1h17Z" transform="translate(-66.13 -100.2)"/></g><path class="cls-11" d="M318.88,216h-92.8a2.7,2.7,0,0,1,0-5.4h92.8a2.69,2.69,0,0,1,2.7,2.7A2.75,2.75,0,0,1,318.88,216Z" transform="translate(-66.13 -100.2)"/><path class="cls-12" d="M272.48,233.06h-46.4a2.7,2.7,0,0,1,0-5.4h46.4a2.69,2.69,0,0,1,2.7,2.7A2.75,2.75,0,0,1,272.48,233.06Z" transform="translate(-66.13 -100.2)"/><path class="cls-13" d="M66.13,164.8h96.6a23.43,23.43,0,0,0,4.9-22.1c-3.7-13.5-21.6-20.1-27-4.1,0,0-7.1-8.8-23.3-6.7s-16.1,15.1-16.1,15.1S75.93,140,66.13,164.8Z" transform="translate(-66.13 -100.2)"/><path class="cls-14" d="M245.43,126.4h-71.1a17.17,17.17,0,0,1-3.6-16.3c2.8-9.9,15.9-14.8,19.9-3,0,0,5.3-6.5,17.1-4.9s11.9,11.1,11.9,11.1S238.23,108.1,245.43,126.4Z" transform="translate(-66.13 -100.2)"/><circle class="cls-15" cx="246.75" cy="205.57" r="53.1"/><path class="cls-16" d="M354.09,245.88h0a1.54,1.54,0,0,0,.9,1.3,10.43,10.43,0,0,1,6,6,1.42,1.42,0,0,0,1.3.9h0a1.54,1.54,0,0,0,1.3-.9,10.55,10.55,0,0,1,5.9-6,1.42,1.42,0,0,0,.9-1.3h0a1.54,1.54,0,0,0-.9-1.3,10.1,10.1,0,0,1-5.9-5.9,1.42,1.42,0,0,0-1.3-.9h0a1.54,1.54,0,0,0-1.3.9,10,10,0,0,1-6,5.9A1.68,1.68,0,0,0,354.09,245.88Z" transform="translate(-66.13 -100.2)"/><path class="cls-17" d="M373.84,259h0a.75.75,0,0,0,.5.7,5.66,5.66,0,0,1,3.3,3.3.75.75,0,0,0,.7.5h0a.75.75,0,0,0,.7-.5,5.66,5.66,0,0,1,3.3-3.3.75.75,0,0,0,.5-.7h0a.75.75,0,0,0-.5-.7A5.66,5.66,0,0,1,379,255a.75.75,0,0,0-.7-.5h0a.75.75,0,0,0-.7.5,5.66,5.66,0,0,1-3.3,3.3A.75.75,0,0,0,373.84,259Z" transform="translate(-66.13 -100.2)"/><path class="cls-3" d="M466.62,196.73l17.67-16.86h56s13.85,3,15.7-11.66,0-35.57,0-35.57,1.85-12.58-12.58-13.27-60.51,0-60.51,0-8.54,0-11.2,14.43-8.31,61.08-8.31,61.08S463.16,200.08,466.62,196.73Z" transform="translate(-66.13 -100.2)"/><polyline class="cls-18" points="225.09 205.57 244.12 228.16 274.33 182.98"/></svg>