<?xml version="1.0" encoding="utf-8"?>
<!-- Generator: Adobe Illustrator 25.0.1, SVG Export Plug-In . SVG Version: 6.00 Build 0)  -->
<svg version="1.0" id="Layer_1" xmlns="http://www.w3.org/2000/svg" xmlns:xlink="http://www.w3.org/1999/xlink" x="0px" y="0px"
	 viewBox="0 0 1018 658" style="enable-background:new 0 0 1018 658;" xml:space="preserve">
<style type="text/css">
	.st0{fill:#0072B7;}
	.st1{fill:none;}
</style>
<g id="CCBill_logo">
	<path class="st0" d="M872.5,418.4c-6.2-0.2-10.5-2.5-13.2-6.9c-1.5-2.3-2.3-7.2-2.7-14.4V224.3h-13l-37.4,15l3.7,10
		c0.7-0.1,1.3-0.2,2-0.2c5.8,0,10.7,5.4,11.2,12c0,0.5,0.2,0.8,0.2,1.3v134.4c-0.3,7.4-1.2,12.4-2.7,14.9c-2.7,4.3-7,6.5-13.2,6.9
		h-1.2v9.7H874v-9.7h-1.5V418.4z M783.5,411.5c-1.5-2.3-2.3-7.2-2.7-14.4V224.3h-13l-37.4,15l3.7,10c0.7-0.1,1.3-0.2,2-0.2
		c5.8,0,10.7,5.4,11.2,12c0,0.5,0.2,0.8,0.2,1.3v134.4c-0.3,7.4-1.2,12.4-2.7,14.9c-2.7,4.3-7,6.5-13.2,6.9h-1.2v9.7H798v-9.7h-1.2
		C790.7,418,786.3,415.9,783.5,411.5L783.5,411.5z M688.9,272c8.8,0,16-7.2,16-16s-7.2-16-16-16s-16,7.2-16,16
		c-0.1,8.7,6.9,15.9,15.7,16C688.7,272,688.8,272,688.9,272z M707.8,411.5c-1.5-2.3-2.3-7.2-2.7-14.4V292.6h-12l-37.4,15l3.7,10
		c0.7-0.1,1.3-0.2,2-0.2c5.8,0,10.7,5.4,11.2,12c0,0.5,0.2,0.8,0.2,1.3v65.8c-0.3,7.4-1.2,12.4-2.7,14.9c-2.7,4.3-7,6.5-13.2,6.9
		h-1.2v9.7h66.5v-9.7H721C714.8,417.9,710.5,415.8,707.8,411.5L707.8,411.5z M629.4,303.8c-8.3-9.2-21.2-15.9-38.2-20
		c-1.5-0.3-3.5-0.8-5.9-1.2c8.1-3.8,15.2-9.6,20.4-16.9c6.2-8.7,9.4-18,9.4-27.6c0-13.7-5.5-27.1-14.4-35.2
		c-6.8-6.2-18.4-12-32.1-14.9c-16.4-3-33-4.5-49.6-4.4c-1.7,0-15.9-0.2-18.2-0.2h-60V194c5,0,21.5,1.8,21.5,24.7l-0.3,66.1
		l-0.7,88.2c0,15.4-1.3,25.4-3.8,29.9c-4.2,7-11,9.9-20.7,9.9h-12.2l1.2,15.4h116.6c27.2,0,47.8-3,61.1-8.9
		c13.3-5.8,24.4-15.7,31.7-28.2c7.7-12.9,11.5-26.4,11.5-40.3C647.2,332.3,641.1,316.5,629.4,303.8z M499,199.2h20.2
		c13.5,0,24.9,2,34.1,5.7c9,3.9,15.5,9,19.5,15.5c3.9,6.2,6,13.3,6,20.5c0,10.7-4.5,19.9-13.2,27.2c-8.9,7.4-21.9,11-38.9,11
		c-5,0-22.2-0.3-27.6-0.8v-79.1H499z M585.9,396.7c-11,10.9-27.2,16.4-48.3,16.4c-13.4-0.1-26.7-1.9-39.6-5.4V294.2
		c3.8-0.6,7.7-1,11.5-1.2c5.2-0.3,11.5-0.3,18.9-0.3c16.7,0,30.9,2.8,42.1,8.5s19.4,13.4,24.4,23c4.9,9.5,7.5,20,7.5,30.7
		C602.4,371.3,596.9,385.8,585.9,396.7L585.9,396.7z"/>
	<path class="st0" d="M398.6,524.6c-13,7-30.6,10.7-47.8,10.7c-19.7,0-37.6-4.5-53-13.5c-15.3-8.8-26.8-21.9-34.5-38.8
		c-3.8-8.4-6.6-17.3-8.4-26.4c-1.9-10.9-2.8-21.9-2.7-32.9c-0.1-14.2,1.1-28.4,3.5-42.4c7.8,1.1,15.7,1.7,23.6,1.7
		c25.4,0,47.8-5.9,66.3-17.2c15.5-9.5,29.7-24.2,42.3-43.3l-13.5-8.9c-12.2,14.5-23.6,24.7-33.7,30.2c-13,7-30.6,10.7-47.8,10.7
		c-9.5,0-19-1.1-28.2-3.5c8-18,19-31.4,32.7-39.8c14-8.5,29.9-12.9,47.4-12.9c20.7,0,38.8,5.9,53.5,17.4
		c13.4,10.4,24,27.2,32.1,50.1l0.5,1.5H446l-6.5-92.9h-10.7c0,0-2.7,19-15.7,19c-2.3,0-4.5-0.7-11-4.2
		c-19.4-9.9-39.4-14.7-59.3-14.7c-25-0.2-49.6,6.4-71.2,19c-17,9.9-31.5,23.4-42.6,39.6c-10.2-8.4-18.2-19-23.6-31.1
		c-3.8-8.4-6.6-17.3-8.4-26.4c-1.8-10.9-2.7-21.9-2.6-32.9c0-21.7,2.3-41.1,6.8-57.6c1.4-4.7,3.1-9.4,5-13.9
		c7.9-18.5,19-32.2,33.1-40.8s29.9-12.9,47.5-12.9c20.7,0,38.8,5.9,53.4,17.4c13.4,10.4,24.1,27.2,32.1,50.1l0.5,1.7h15.2l-6.5-92.9
		h-10.7c0,0-2.7,19-15.7,19c-2.3,0-4.5-0.7-11-4.2c-19.4-9.9-39.4-14.7-59.3-14.7c-25-0.2-49.6,6.4-71.2,19
		c-21.8,12.7-39,30.8-51.1,53.8C150.2,190,144,215.6,144,242.8c0,34.1,9.5,64.2,28.2,89.2c10.5,14.4,24,26.3,39.6,34.9
		c-6.6,18.1-9.9,37.3-9.8,56.6c0,34.1,9.5,64.2,28.2,89.2c25.2,33.9,61.3,51.1,107.2,51.1c25.4,0,47.8-5.8,66.3-17.2
		c15.5-9.5,29.7-24.2,42.3-43.3l-13.5-8.9C420.2,509.1,408.8,519.3,398.6,524.6L398.6,524.6z"/>
</g>
<rect x="117" y="65" class="st1" width="784" height="528"/>
</svg>
