<svg width="90" viewBox="0 0 500 234" fill="none" xmlns="http://www.w3.org/2000/svg">
<g clip-path="url(#clip0)">
<path d="M7.67733 34.9094H21.77L52.6896 84.1284V34.9094H67.9391V110H53.9517L22.9268 61.2016V110H7.67733V34.9094ZM119.326 111.893C113.717 111.893 108.703 110.982 104.286 109.159C99.8693 107.336 96.1182 104.706 93.0333 101.271C89.9483 97.8355 87.5645 93.6988 85.8818 88.861C84.2692 84.0233 83.4629 78.5545 83.4629 72.4547C83.4629 66.3549 84.2692 60.8861 85.8818 56.0483C87.5645 51.2106 89.9483 47.0739 93.0333 43.6384C96.1883 40.2029 99.9744 37.5737 104.392 35.7507C108.809 33.9278 113.787 33.0163 119.326 33.0163C124.935 33.0163 129.948 33.9278 134.365 35.7507C138.782 37.5737 142.498 40.2029 145.513 43.6384C148.598 47.0739 150.946 51.2106 152.559 56.0483C154.171 60.8861 154.978 66.3549 154.978 72.4547C154.978 78.5545 154.171 84.0233 152.559 88.861C151.016 93.6988 148.703 97.8355 145.618 101.271C142.603 104.706 138.887 107.336 134.47 109.159C130.053 110.982 125.005 111.893 119.326 111.893ZM119.22 98.4314C125.811 98.4314 130.719 96.1878 133.944 91.7006C137.169 87.2134 138.782 80.7981 138.782 72.4547C138.782 64.1814 137.169 57.8011 133.944 53.3139C130.719 48.7566 125.811 46.478 119.22 46.478C112.63 46.478 107.722 48.7566 104.497 53.3139C101.272 57.8011 99.6589 64.1814 99.6589 72.4547C99.6589 80.7981 101.272 87.2134 104.497 91.7006C107.722 96.1878 112.63 98.4314 119.22 98.4314ZM162.082 34.9094H179.751L191.845 87.0732L204.15 35.3301H220.767L233.597 87.0732L244.955 34.9094H261.782L241.38 110H226.13L212.143 54.4708L198.576 110H183.747L162.082 34.9094Z" fill="#64ACFF"/>
<path d="M8.30835 130.909H33.4437C38.9826 130.909 43.5399 131.505 47.1157 132.697C50.7615 133.889 53.6011 135.502 55.6344 137.535C57.7377 139.568 59.1751 141.952 59.9463 144.687C60.7876 147.351 61.2083 150.19 61.2083 153.205C61.2083 156.36 60.7876 159.375 59.9463 162.25C59.1049 165.124 57.6326 167.648 55.5292 169.822C53.4258 171.995 50.5863 173.713 47.0105 174.975C43.4348 176.237 38.9125 176.868 33.4437 176.868H17.8787V206H8.30835V130.909ZM33.3386 168.665C36.9844 168.665 39.9993 168.314 42.3831 167.613C44.7669 166.912 46.6249 165.896 47.957 164.563C49.2892 163.231 50.2006 161.654 50.6914 159.831C51.2523 157.938 51.5328 155.834 51.5328 153.521C51.5328 151.137 51.2523 149.033 50.6914 147.211C50.1305 145.388 49.149 143.88 47.7467 142.688C46.3444 141.496 44.4514 140.62 42.0676 140.059C39.7539 139.428 36.8091 139.113 33.2334 139.113H17.8787V168.665H33.3386ZM106.38 198.533C104.417 200.917 101.928 202.985 98.9129 204.738C95.898 206.421 92.147 207.262 87.6598 207.262C84.9254 207.262 82.4014 206.911 80.0876 206.21C77.844 205.579 75.8809 204.598 74.1982 203.266C72.5856 201.863 71.3236 200.146 70.4121 198.112C69.5006 196.079 69.0449 193.695 69.0449 190.961C69.0449 187.245 69.8161 184.23 71.3586 181.916C72.9712 179.603 75.0746 177.78 77.6688 176.448C80.333 175.115 83.3128 174.169 86.6081 173.608C89.9034 173.047 93.3039 172.697 96.8095 172.556L106.17 172.241V170.137C106.17 165.51 105.188 162.18 103.225 160.146C101.262 158.113 98.0715 157.096 93.6544 157.096C89.3075 157.096 86.1173 157.833 84.0841 159.305C82.0508 160.707 80.7187 162.67 80.0876 165.194L71.7793 164.248C72.7609 159.27 75.1096 155.659 78.8256 153.416C82.5416 151.102 87.5897 149.945 93.9699 149.945C97.8963 149.945 101.192 150.436 103.856 151.417C106.59 152.329 108.799 153.661 110.481 155.414C112.164 157.167 113.356 159.34 114.057 161.934C114.828 164.528 115.214 167.438 115.214 170.663V206H106.38V198.533ZM106.17 178.761L97.4405 179.077C93.7246 179.217 90.6396 179.568 88.1857 180.128C85.7317 180.689 83.7686 181.461 82.2962 182.442C80.8939 183.354 79.8773 184.51 79.2463 185.913C78.6854 187.315 78.4049 188.928 78.4049 190.751C78.4049 193.485 79.2112 195.693 80.8238 197.376C82.5065 198.989 85.2409 199.795 89.027 199.795C94.4257 199.795 98.6324 198.463 101.647 195.799C104.662 193.134 106.17 189.488 106.17 184.861V178.761ZM131.509 217.569C133.473 218.27 135.436 218.62 137.399 218.62C139.642 218.62 141.36 218.024 142.552 216.832C143.814 215.711 145.041 213.572 146.233 210.417L148.442 204.633L125.41 151.628H136.032L153.174 194.326L168.844 151.628H178.941L155.172 211.153C154.191 213.607 153.209 215.746 152.228 217.569C151.246 219.462 150.159 221.074 148.967 222.406C147.775 223.738 146.338 224.72 144.655 225.351C143.043 226.052 141.045 226.403 138.661 226.403C136.978 226.403 135.471 226.298 134.139 226.087C132.806 225.877 131.334 225.491 129.721 224.93L131.509 217.569ZM189.383 151.628H198.428V159.936C200.882 156.571 203.581 154.082 206.526 152.469C209.471 150.786 212.485 149.945 215.57 149.945C219.637 149.945 222.897 150.821 225.351 152.574C227.875 154.327 229.733 156.851 230.925 160.146C233.379 156.781 236.184 154.257 239.339 152.574C242.494 150.821 245.859 149.945 249.435 149.945C254.763 149.945 258.865 151.417 261.74 154.362C264.684 157.237 266.157 161.899 266.157 168.35V206H257.007V170.453C257.007 167.999 256.797 165.966 256.376 164.353C255.955 162.67 255.324 161.373 254.483 160.462C253.712 159.48 252.73 158.814 251.538 158.464C250.346 158.043 248.979 157.833 247.437 157.833C245.824 157.833 244.141 158.113 242.388 158.674C240.636 159.235 238.918 160.216 237.235 161.619C235.833 162.811 234.676 164.248 233.765 165.931C232.853 167.613 232.397 169.541 232.397 171.715V206H223.248V170.558C223.248 165.79 222.406 162.495 220.724 160.672C219.111 158.779 216.762 157.833 213.677 157.833C210.102 157.833 206.736 159.305 203.581 162.25C202.389 163.372 201.232 164.809 200.111 166.562C199.059 168.314 198.533 170.663 198.533 173.608V206H189.383V151.628ZM329.593 190.751C328.682 196.009 326.333 200.146 322.547 203.16C318.831 206.175 313.467 207.683 306.456 207.683C298.183 207.683 291.837 205.194 287.42 200.216C283.003 195.168 280.795 188.156 280.795 179.182C280.795 174.484 281.426 170.313 282.688 166.667C283.95 163.021 285.703 159.971 287.946 157.517C290.26 155.063 292.994 153.205 296.149 151.943C299.304 150.611 302.74 149.945 306.456 149.945C310.663 149.945 314.273 150.611 317.288 151.943C320.303 153.275 322.757 155.133 324.65 157.517C326.613 159.831 328.051 162.6 328.962 165.825C329.944 169.051 330.434 172.591 330.434 176.448V181.075H290.05C290.05 183.809 290.4 186.368 291.101 188.752C291.872 191.066 292.924 193.099 294.256 194.852C295.659 196.535 297.376 197.867 299.41 198.849C301.443 199.83 303.792 200.321 306.456 200.321C311.013 200.321 314.344 199.48 316.447 197.797C318.55 196.044 319.988 193.695 320.759 190.751H329.593ZM321.285 174.239C321.285 171.645 321.004 169.296 320.443 167.193C319.882 165.089 319.006 163.301 317.814 161.829C316.622 160.287 315.08 159.095 313.187 158.253C311.294 157.412 309.015 156.991 306.351 156.991C301.513 156.991 297.727 158.464 294.993 161.408C292.328 164.353 290.751 168.63 290.26 174.239H321.285ZM345.176 151.628H354.221V159.936C356.885 156.36 359.83 153.801 363.055 152.259C366.28 150.716 369.68 149.945 373.256 149.945C379.426 149.945 383.983 151.628 386.928 154.993C389.943 158.358 391.45 163.301 391.45 169.822V206H382.301V171.61C382.301 166.562 381.389 163.021 379.566 160.988C377.743 158.884 374.939 157.833 371.153 157.833C369.119 157.833 367.086 158.183 365.053 158.884C363.09 159.585 361.302 160.707 359.689 162.25C357.937 163.792 356.604 165.44 355.693 167.193C354.781 168.875 354.326 171.084 354.326 173.818V206H345.176V151.628ZM410.925 158.884H402.511V151.628H410.925V136.799H420.074V151.628H434.482V158.884H420.074V190.751C420.074 193.415 420.67 195.553 421.862 197.166C423.054 198.778 424.877 199.585 427.331 199.585C428.873 199.585 430.206 199.48 431.327 199.269C432.519 199.059 433.606 198.778 434.588 198.428L436.165 205.474C434.763 205.965 433.22 206.351 431.538 206.631C429.925 206.982 427.997 207.157 425.753 207.157C422.668 207.157 420.179 206.701 418.286 205.79C416.393 204.878 414.886 203.581 413.764 201.898C412.642 200.216 411.871 198.217 411.45 195.904C411.1 193.59 410.925 191.066 410.925 188.332V158.884ZM452.733 190.119C453.364 193.906 454.942 196.57 457.466 198.112C460.06 199.585 463.566 200.321 467.983 200.321C472.61 200.321 475.87 199.55 477.763 198.007C479.727 196.395 480.708 194.291 480.708 191.697C480.708 190.645 480.568 189.664 480.287 188.752C480.077 187.771 479.621 186.929 478.92 186.228C478.219 185.457 477.238 184.791 475.976 184.23C474.713 183.669 473.066 183.213 471.033 182.863L464.091 181.811C461.006 181.32 458.307 180.689 455.993 179.918C453.68 179.147 451.717 178.165 450.104 176.973C448.491 175.711 447.264 174.204 446.423 172.451C445.652 170.628 445.266 168.455 445.266 165.931C445.266 163.407 445.792 161.163 446.844 159.2C447.966 157.237 449.473 155.589 451.366 154.257C453.329 152.855 455.608 151.803 458.202 151.102C460.866 150.331 463.741 149.945 466.826 149.945C470.752 149.945 474.012 150.331 476.607 151.102C479.271 151.873 481.444 152.925 483.127 154.257C484.81 155.589 486.107 157.167 487.018 158.989C487.93 160.812 488.631 162.741 489.122 164.774L480.813 166.141C480.322 164.669 479.762 163.372 479.131 162.25C478.5 161.128 477.658 160.216 476.607 159.515C475.555 158.744 474.258 158.183 472.715 157.833C471.243 157.412 469.385 157.202 467.141 157.202C464.617 157.202 462.514 157.447 460.831 157.938C459.148 158.358 457.781 158.954 456.73 159.726C455.748 160.497 455.047 161.373 454.626 162.355C454.206 163.266 453.995 164.248 453.995 165.3C453.995 166.421 454.135 167.438 454.416 168.35C454.696 169.191 455.222 169.962 455.993 170.663C456.765 171.294 457.816 171.855 459.148 172.346C460.481 172.837 462.198 173.257 464.302 173.608L472.189 174.87C478.57 175.922 483.127 177.745 485.861 180.339C488.666 182.933 490.068 186.719 490.068 191.697C490.068 194.011 489.612 196.149 488.701 198.112C487.789 200.005 486.422 201.688 484.599 203.16C482.776 204.563 480.498 205.649 477.763 206.421C475.029 207.262 471.839 207.683 468.193 207.683C464.898 207.683 461.813 207.367 458.938 206.736C456.134 206.105 453.645 205.124 451.471 203.791C449.298 202.389 447.545 200.566 446.213 198.323C444.881 196.079 444.109 193.345 443.899 190.119H452.733Z" fill="#13171C"/>
</g>
<defs>
<clipPath id="clip0">
<rect width="500" height="233.333" fill="white"/>
</clipPath>
</defs>
</svg>
